<svg width="140" height="37" viewBox="0 0 140 37" fill="none" xmlns="http://www.w3.org/2000/svg">
<rect y="0.658813" width="140" height="36" rx="5.56992" fill="#2EC4B6"/>
<path d="M51.0432 23.6884C50.2471 23.6884 49.5327 23.566 48.8999 23.321C48.2672 23.0761 47.7313 22.7189 47.2925 22.2494C46.8536 21.7697 46.5168 21.188 46.2821 20.5042C46.0474 19.8204 45.93 19.0345 45.93 18.1466C45.93 17.2587 46.0627 16.4728 46.328 15.789C46.6036 15.1052 46.9761 14.5285 47.4456 14.0591C47.9151 13.5794 48.4662 13.2171 49.099 12.9721C49.7317 12.7272 50.4104 12.6047 51.135 12.6047C51.5739 12.6047 51.9719 12.6404 52.3292 12.7119C52.6864 12.7731 52.9976 12.8446 53.263 12.9262C53.5284 13.0079 53.7478 13.0946 53.9213 13.1865C54.0948 13.2783 54.2173 13.3446 54.2887 13.3855L53.7223 14.9623C53.4773 14.8092 53.1252 14.6663 52.666 14.5336C52.2169 14.3908 51.727 14.3193 51.1963 14.3193C50.737 14.3193 50.3084 14.401 49.9103 14.5643C49.5123 14.7174 49.1653 14.9521 48.8693 15.2685C48.5835 15.5849 48.359 15.9829 48.1957 16.4626C48.0324 16.9423 47.9508 17.4985 47.9508 18.1313C47.9508 18.6926 48.012 19.208 48.1345 19.6775C48.2672 20.147 48.4662 20.5552 48.7315 20.9022C48.9969 21.239 49.3337 21.5044 49.7419 21.6983C50.1502 21.882 50.6401 21.9738 51.2116 21.9738C51.8954 21.9738 52.4516 21.9075 52.8803 21.7748C53.3089 21.6319 53.6406 21.4992 53.8754 21.3768L54.3959 22.9536C54.2734 23.0353 54.105 23.1169 53.8907 23.1985C53.6866 23.2802 53.4416 23.3618 53.1558 23.4435C52.8701 23.5149 52.5486 23.5711 52.1914 23.6119C51.8342 23.6629 51.4514 23.6884 51.0432 23.6884ZM57.3982 18.1466C57.3982 18.7283 57.4697 19.259 57.6126 19.7387C57.7554 20.2082 57.9596 20.6113 58.2249 20.9481C58.5005 21.2747 58.8322 21.5299 59.22 21.7136C59.6078 21.8973 60.0467 21.9891 60.5366 21.9891C61.0163 21.9891 61.45 21.8973 61.8378 21.7136C62.2257 21.5299 62.5523 21.2747 62.8176 20.9481C63.0932 20.6113 63.3024 20.2082 63.4453 19.7387C63.5882 19.259 63.6596 18.7283 63.6596 18.1466C63.6596 17.5648 63.5882 17.0392 63.4453 16.5697C63.3024 16.0901 63.0932 15.6869 62.8176 15.3603C62.5523 15.0235 62.2257 14.7633 61.8378 14.5796C61.45 14.3959 61.0163 14.304 60.5366 14.304C60.0467 14.304 59.6078 14.3959 59.22 14.5796C58.8322 14.7633 58.5005 15.0235 58.2249 15.3603C57.9596 15.6971 57.7554 16.1003 57.6126 16.5697C57.4697 17.0392 57.3982 17.5648 57.3982 18.1466ZM65.6804 18.1466C65.6804 19.0549 65.5426 19.8561 65.2671 20.5501C65.0017 21.2441 64.6343 21.8258 64.1648 22.2953C63.7055 22.7546 63.1646 23.1016 62.5421 23.3363C61.9195 23.5711 61.2561 23.6884 60.5519 23.6884C59.8477 23.6884 59.1792 23.5711 58.5464 23.3363C57.9238 23.1016 57.3778 22.7546 56.9083 22.2953C56.4491 21.8258 56.0817 21.2441 55.8061 20.5501C55.5305 19.8561 55.3927 19.0549 55.3927 18.1466C55.3927 17.2382 55.5305 16.4422 55.8061 15.7584C56.0817 15.0644 56.4542 14.4826 56.9236 14.0131C57.4033 13.5437 57.9545 13.1916 58.577 12.9568C59.1996 12.7221 59.8579 12.6047 60.5519 12.6047C61.2459 12.6047 61.9042 12.7221 62.5267 12.9568C63.1493 13.1916 63.6902 13.5437 64.1495 14.0131C64.619 14.4826 64.9915 15.0644 65.2671 15.7584C65.5426 16.4422 65.6804 17.2382 65.6804 18.1466ZM70.1082 12.8497C70.3327 13.2375 70.5828 13.7121 70.8583 14.2734C71.1339 14.8347 71.4145 15.4267 71.7003 16.0492C71.9861 16.6616 72.2667 17.2893 72.5423 17.9322C72.8281 18.565 73.0883 19.1519 73.3231 19.6928C73.5578 19.1519 73.813 18.565 74.0885 17.9322C74.3641 17.2893 74.6447 16.6616 74.9305 16.0492C75.2163 15.4267 75.4969 14.8347 75.7725 14.2734C76.0481 13.7121 76.2981 13.2375 76.5226 12.8497H78.2679C78.3597 13.6253 78.4465 14.452 78.5281 15.3297C78.6098 16.1972 78.6812 17.0903 78.7425 18.0088C78.8139 18.9171 78.8751 19.8357 78.9262 20.7644C78.9874 21.683 79.0384 22.5811 79.0793 23.4588H77.1809C77.1401 22.2239 77.0891 20.9532 77.0278 19.6469C76.9768 18.3405 76.8952 17.0749 76.7829 15.8502C76.6706 16.085 76.538 16.3656 76.3849 16.6922C76.2318 17.0188 76.0685 17.376 75.895 17.7638C75.7215 18.1415 75.5429 18.5344 75.3592 18.9426C75.1857 19.3509 75.0122 19.7489 74.8387 20.1367C74.6754 20.5144 74.5223 20.8716 74.3794 21.2084C74.2365 21.535 74.114 21.8156 74.012 22.0504H72.5729C72.4709 21.8156 72.3484 21.5299 72.2055 21.1931C72.0626 20.8563 71.9044 20.4991 71.7309 20.1214C71.5676 19.7336 71.3941 19.3356 71.2104 18.9273C71.0369 18.5191 70.8634 18.1262 70.6899 17.7485C70.5164 17.3709 70.3531 17.0188 70.2 16.6922C70.0469 16.3554 69.9143 16.0748 69.802 15.8502C69.6897 17.0749 69.603 18.3405 69.5417 19.6469C69.4907 20.9532 69.4448 22.2239 69.404 23.4588H67.5056C67.5465 22.5811 67.5924 21.6728 67.6434 20.7338C67.7047 19.7948 67.7659 18.8661 67.8271 17.9476C67.8986 17.0188 67.9751 16.1207 68.0568 15.2532C68.1384 14.3857 68.2252 13.5845 68.317 12.8497H70.1082ZM84.327 12.7425C85.8681 12.7425 87.0469 13.0232 87.8634 13.5845C88.6901 14.1458 89.1034 15.0235 89.1034 16.2176C89.1034 16.8402 88.9912 17.376 88.7666 17.8251C88.5523 18.2639 88.2359 18.6263 87.8175 18.912C87.399 19.1876 86.8887 19.3917 86.2866 19.5244C85.6844 19.6571 84.9955 19.7234 84.2199 19.7234H83.2554V23.4588H81.3264V13.0027C81.7755 12.9007 82.2705 12.8343 82.8114 12.8037C83.3625 12.7629 83.8677 12.7425 84.327 12.7425ZM84.4648 14.4112C83.9749 14.4112 83.5718 14.4265 83.2554 14.4571V18.07H84.1892C85.118 18.07 85.8324 17.9425 86.3325 17.6873C86.8326 17.4219 87.0826 16.927 87.0826 16.2023C87.0826 15.8553 87.0163 15.5645 86.8836 15.3297C86.7509 15.095 86.5672 14.9113 86.3325 14.7786C86.0978 14.6459 85.8171 14.5541 85.4905 14.503C85.1741 14.4418 84.8322 14.4112 84.4648 14.4112ZM93.7887 12.7425C95.3196 12.7425 96.4882 13.0232 97.2945 13.5845C98.1109 14.1458 98.5192 15.0031 98.5192 16.1564C98.5192 17.5955 97.8099 18.5701 96.3912 19.0804C96.5851 19.3152 96.8046 19.6009 97.0495 19.9377C97.2945 20.2745 97.5445 20.6419 97.7997 21.04C98.0548 21.4278 98.2998 21.8309 98.5345 22.2494C98.7692 22.6576 98.9785 23.0608 99.1622 23.4588H97.0036C96.8097 23.0914 96.6005 22.724 96.3759 22.3566C96.1514 21.9789 95.9218 21.6166 95.687 21.2696C95.4625 20.9124 95.2379 20.5807 95.0134 20.2745C94.7889 19.9581 94.5797 19.6775 94.3857 19.4325C94.2429 19.4427 94.1204 19.4478 94.0183 19.4478C93.9163 19.4478 93.8193 19.4478 93.7275 19.4478H92.7936V23.4588H90.8647V13.0027C91.3342 12.9007 91.8342 12.8343 92.365 12.8037C92.8957 12.7629 93.3703 12.7425 93.7887 12.7425ZM93.9265 14.4112C93.5182 14.4112 93.1406 14.4265 92.7936 14.4571V17.8863H93.6356C94.1051 17.8863 94.5184 17.8608 94.8756 17.8098C95.2328 17.7587 95.5288 17.6669 95.7636 17.5342C96.0085 17.4015 96.1922 17.2229 96.3147 16.9984C96.4372 16.7739 96.4984 16.4881 96.4984 16.1411C96.4984 15.8145 96.4372 15.5389 96.3147 15.3144C96.1922 15.0899 96.0136 14.9113 95.7789 14.7786C95.5543 14.6459 95.2839 14.5541 94.9675 14.503C94.6511 14.4418 94.3041 14.4112 93.9265 14.4112ZM108.088 23.4588C107.945 23.0404 107.797 22.627 107.644 22.2188C107.491 21.8105 107.343 21.3921 107.2 20.9634H102.73C102.587 21.3921 102.439 21.8156 102.286 22.2341C102.143 22.6423 102 23.0506 101.857 23.4588H99.8517C100.25 22.3259 100.627 21.2798 100.985 20.3205C101.342 19.3611 101.689 18.4528 102.026 17.5955C102.373 16.7381 102.714 15.9217 103.051 15.146C103.388 14.3704 103.735 13.6049 104.092 12.8497H105.914C106.271 13.6049 106.618 14.3704 106.955 15.146C107.292 15.9217 107.629 16.7381 107.965 17.5955C108.312 18.4528 108.665 19.3611 109.022 20.3205C109.389 21.2798 109.772 22.3259 110.17 23.4588H108.088ZM104.965 14.9011C104.73 15.442 104.46 16.1003 104.153 16.8759C103.858 17.6516 103.546 18.4936 103.22 19.4019H106.71C106.384 18.4936 106.067 17.6465 105.761 16.8606C105.455 16.0748 105.189 15.4216 104.965 14.9011ZM114.435 12.7425C115.966 12.7425 117.134 13.0232 117.941 13.5845C118.757 14.1458 119.165 15.0031 119.165 16.1564C119.165 17.5955 118.456 18.5701 117.037 19.0804C117.231 19.3152 117.451 19.6009 117.696 19.9377C117.941 20.2745 118.191 20.6419 118.446 21.04C118.701 21.4278 118.946 21.8309 119.181 22.2494C119.415 22.6576 119.625 23.0608 119.808 23.4588H117.65C117.456 23.0914 117.247 22.724 117.022 22.3566C116.798 21.9789 116.568 21.6166 116.333 21.2696C116.109 20.9124 115.884 20.5807 115.66 20.2745C115.435 19.9581 115.226 19.6775 115.032 19.4325C114.889 19.4427 114.767 19.4478 114.665 19.4478C114.563 19.4478 114.466 19.4478 114.374 19.4478H113.44V23.4588H111.511V13.0027C111.98 12.9007 112.48 12.8343 113.011 12.8037C113.542 12.7629 114.016 12.7425 114.435 12.7425ZM114.573 14.4112C114.164 14.4112 113.787 14.4265 113.44 14.4571V17.8863H114.282C114.751 17.8863 115.165 17.8608 115.522 17.8098C115.879 17.7587 116.175 17.6669 116.41 17.5342C116.655 17.4015 116.838 17.2229 116.961 16.9984C117.083 16.7739 117.145 16.4881 117.145 16.1411C117.145 15.8145 117.083 15.5389 116.961 15.3144C116.838 15.0899 116.66 14.9113 116.425 14.7786C116.201 14.6459 115.93 14.5541 115.614 14.503C115.297 14.4418 114.95 14.4112 114.573 14.4112Z" fill="white"/>
<path fill-rule="evenodd" clip-rule="evenodd" d="M26.4748 16.2779H28.3905V13.4207H31.264V11.516H28.3905V8.65881H26.4748V11.516H23.6012V13.4207H26.4748V16.2779ZM22.6437 24.8492C21.5901 24.8492 20.7376 25.7064 20.7376 26.754C20.7376 27.8016 21.5901 28.6588 22.6437 28.6588C23.6974 28.6588 24.5594 27.8016 24.5594 26.754C24.5594 25.7064 23.6974 24.8492 22.6437 24.8492ZM32.2221 24.8492C31.1685 24.8492 30.316 25.7064 30.316 26.754C30.316 27.8016 31.1685 28.6588 32.2221 28.6588C33.2757 28.6588 34.1378 27.8016 34.1378 26.754C34.1378 25.7064 33.2757 24.8492 32.2221 24.8492ZM22.8063 21.754L22.8351 21.6397L23.6971 20.0874H30.8331C31.5515 20.0874 32.1837 19.6969 32.5094 19.1064L36.2067 12.4302L34.54 11.5159H34.5305L33.4768 13.4207L30.8331 18.1826H24.109L23.9845 17.9255L21.8389 13.4207L20.9289 11.5159L20.0285 9.61118H16.8964V11.5159H18.8121L22.2603 18.7445L20.9672 21.0778C20.814 21.3445 20.7278 21.6588 20.7278 21.9921C20.7278 23.0397 21.5898 23.8969 22.6435 23.8969H34.1377V21.9921H23.0458C22.9213 21.9921 22.8063 21.8874 22.8063 21.754Z" fill="white"/>
</svg>
